# xmcd
#
# Track frame offsets:
#	150
#	13327
#	28765
#	41902
#	54095
#	67815
#	82612
#	96957
#	109315
#	120900
#
# Disc length: 1840 seconds
# Revision: 6
# Processed by: cddbd v1.5.2PL0 Copyright (c) Steve Scherf et al.
# Submitted via: dBpowerAMP V12.0
#
DISCID=74072e0a
DTITLE=Waylon Jennings - The Eagle [Remastered]
DYEAR=1990
DGENRE=Country
TTITLE0=Workin' Cheap
TTITLE1=What Bothers Me Most
TTITLE2=The Eagle
TTITLE3=Her Man
TTITLE4=Wrong
TTITLE5=Where Corn Don't Grow
TTITLE6=Reno and Me
TTITLE7=Too Close to Call
TTITLE8=Waking Up With You
TTITLE9=Old Church Hymns and Nursery Rhymes
EXTD=
EXTT0=
EXTT1=
EXTT2=
EXTT3=
EXTT4=
EXTT5=
EXTT6=
EXTT7=
EXTT8=
EXTT9=
PLAYORDER=
